<svg xmlns="http://www.w3.org/2000/svg" viewBox="0 0 800 200" width="100%" height="100%">
  <defs>
    <!-- Background Base Gradient -->
    <linearGradient id="bgGrad" x1="0%" y1="0%" x2="100%" y2="100%">
      <stop offset="0%" stop-color="#070C18" />
      <stop offset="100%" stop-color="#0F172A" />
    </linearGradient>

    <!-- Official Avraan Logo Gradient (Cyan to Electric Blue & Purple) -->
    <linearGradient id="avraanGrad" x1="0%" y1="0%" x2="100%" y2="100%">
      <stop offset="0%" stop-color="#00F2FE" />
      <stop offset="45%" stop-color="#3B82F6" />
      <stop offset="100%" stop-color="#8B5CF6" />
    </linearGradient>

    <!-- Logo Radial Background Glow -->
    <radialGradient id="logoGlow" cx="50%" cy="50%" r="50%">
      <stop offset="0%" stop-color="#00F2FE" stop-opacity="0.1" />
      <stop offset="100%" stop-color="#070C18" stop-opacity="0" />
    </radialGradient>

    <!-- Extremely Subtle Bottom Line Accent -->
    <linearGradient id="bottomAccent" x1="0%" y1="0%" x2="100%" y2="0%">
      <stop offset="0%" stop-color="#00F2FE" stop-opacity="0" />
      <stop offset="20%" stop-color="#00F2FE" stop-opacity="0.4" />
      <stop offset="50%" stop-color="#3B82F6" stop-opacity="0.5" />
      <stop offset="80%" stop-color="#8B5CF6" stop-opacity="0.4" />
      <stop offset="100%" stop-color="#8B5CF6" stop-opacity="0" />
    </linearGradient>

    <!-- Subtle Grid Texture -->
    <pattern id="subtleGrid" width="24" height="24" patternUnits="userSpaceOnUse">
      <path d="M 24 0 L 0 0 0 24" fill="none" stroke="#1E293B" stroke-width="0.75" stroke-opacity="0.15" />
    </pattern>

    <!-- Official Avraan Vector Logo Definition (Recreated from avraan.png) -->
    <g id="avraan-official-logo">
      <!-- Shield Frame Contour -->
      <path d="M 45 6 C 55 12, 74 16, 80 28 C 87 43, 83 65, 71 78 C 59 91, 45 95, 45 95 C 45 95, 31 91, 19 78 C 7 65, 3 43, 10 28 C 16 16, 35 12, 45 6 Z" fill="#111A2E" stroke="url(#avraanGrad)" stroke-width="2.5" stroke-linejoin="round" />
      
      <!-- Central Stylized 'A' Monogram -->
      <path d="M45 15 L67 63 H56 L51 50 H39 L34 63 H23 Z M45 28 L42 41 H48 Z" fill="url(#avraanGrad)" />
      
      <!-- Orbital Fluid Swoosh -->
      <path d="M 13 46 C 8 32, 18 19, 34 17 C 25 22, 18 33, 21 44 C 23 50, 28 53, 36 53 C 52 53, 65 35, 75 25 C 67 35, 52 59, 36 59 C 25 59, 16 54, 13 46 Z" fill="url(#avraanGrad)" opacity="0.95" />
      
      <!-- Inner Base Arc -->
      <path d="M 37 57 C 42 60, 48 60, 53 57" fill="none" stroke="url(#avraanGrad)" stroke-width="2.5" stroke-linecap="round" />
    </g>
  </defs>

  <style>
    .text-name {
      font-family: system-ui, -apple-system, 'Segoe UI', Roboto, Helvetica, Arial, sans-serif;
      font-size: 24px;
      font-weight: 700;
      letter-spacing: -0.4px;
      fill: #F8FAFC;
    }
    .text-role {
      font-family: system-ui, -apple-system, 'Segoe UI', Roboto, Helvetica, Arial, sans-serif;
      font-size: 15px;
      font-weight: 600;
      letter-spacing: 0.1px;
      fill: #38BDF8;
    }
    .text-focus {
      font-family: system-ui, -apple-system, 'Segoe UI', Roboto, Helvetica, Arial, sans-serif;
      font-size: 13px;
      font-weight: 400;
      letter-spacing: 0.1px;
      fill: #94A3B8;
    }
  </style>

  <!-- Outer Card Container -->
  <rect width="800" height="200" rx="18" fill="url(#bgGrad)" stroke="#1E293B" stroke-opacity="0.6" stroke-width="1" />
  <rect width="800" height="198" rx="18" fill="url(#subtleGrid)" />

  <!-- Logo Background Subtle Radial Glow -->
  <circle cx="95" cy="97" r="75" fill="url(#logoGlow)" />

  <!-- Logo Group (Centered at Y=50) -->
  <g transform="translate(50, 50)">
    <use href="#avraan-official-logo" />
  </g>

  <!-- Typography Content Block -->
  <g transform="translate(172, 0)">
    <text x="0" y="74" class="text-name">Sheikh Istiaque Mahmud Ayon</text>
    <text x="0" y="103" class="text-role">Founder &amp; CEO · Avraan</text>
    <text x="0" y="132" class="text-focus">Mobile Security • AI Integration • Flutter Architecture</text>
  </g>

  <!-- Extremely Subtle Bottom Line Accent -->
  <rect x="60" y="196.5" width="680" height="1.5" rx="0.75" fill="url(#bottomAccent)" />
</svg>
